<?xml version="1.0" encoding="utf-8"?>
<!-- Generator: Adobe Illustrator 16.0.0, SVG Export Plug-In . SVG Version: 6.00 Build 0)  -->
<!DOCTYPE svg PUBLIC "-//W3C//DTD SVG 1.1//EN" "http://www.w3.org/Graphics/SVG/1.1/DTD/svg11.dtd">
<svg version="1.1" id="Layer_1" xmlns="http://www.w3.org/2000/svg" xmlns:xlink="http://www.w3.org/1999/xlink" x="0px" y="0px"
	 width="275.266px" height="97.156px" viewBox="2.868 -8.731 275.266 97.156" enable-background="new 2.868 -8.731 275.266 97.156"
	 xml:space="preserve">
<g>
	<path fill="#FFFFFF" d="M13.679,75.382c-0.132,0.421-0.323,0.739-0.568,0.952c-0.247,0.213-0.597,0.352-1.048,0.416
		c-0.453,0.063-1.109,0.132-1.969,0.205c-0.384,0.033-0.892,0.016-1.522-0.049c-0.633-0.067-0.97-0.363-1.016-0.888
		c-0.275-3.204-0.371-6.412-0.286-9.624c0.085-3.211,0.207-6.413,0.366-9.606c0.245-4.982,0.563-9.949,0.958-14.897
		c0.392-4.948,0.929-9.908,1.61-14.881c-0.663,0.154-1.336,0.295-2.023,0.427c-0.688,0.132-1.361,0.274-2.022,0.428
		c-0.375,0.13-0.715,0.23-1.021,0.304c-0.308,0.075-0.652,0.129-1.034,0.162c-0.766,0.066-1.175-0.211-1.228-0.833
		c-0.045-0.526,0.253-0.962,0.899-1.307c0.644-0.345,1.402-0.626,2.276-0.846c0.872-0.22,1.737-0.391,2.594-0.513
		c0.856-0.121,1.475-0.2,1.858-0.232c0.055-0.485,0.147-0.952,0.278-1.397c0.13-0.444,0.248-0.888,0.355-1.332
		c0.255-0.938,0.612-1.702,1.067-2.296c0.455-0.592,1.12-1.119,1.996-1.581c0.874-0.46,1.744-0.728,2.605-0.802
		c0.286-0.025,0.557,0.049,0.813,0.219c0.255,0.17,0.397,0.425,0.427,0.758c0.008,0.096-0.023,0.292-0.095,0.586
		c-0.317,0.798-0.521,1.635-0.615,2.509c-0.094,0.875-0.201,1.729-0.322,2.558c3.63-0.359,7.002-0.217,10.119,0.43
		c3.114,0.648,5.863,1.796,8.246,3.445c2.382,1.65,4.316,3.846,5.806,6.583c1.489,2.738,2.397,6.021,2.727,9.846
		c0.259,3.013-0.195,5.847-1.364,8.5c-1.169,2.653-2.753,5.091-4.755,7.311c-2.002,2.221-4.252,4.196-6.752,5.93
		c-2.501,1.731-4.951,3.208-7.352,4.427c-1.342,0.646-2.898,1.309-4.67,1.991c-1.773,0.685-3.4,1.088-4.882,1.216
		C13.961,74.332,13.811,74.961,13.679,75.382z M18.698,67.796c1.491-0.586,2.974-1.256,4.452-2.009
		c2.03-1.042,4.079-2.277,6.149-3.71c2.069-1.431,3.916-3.058,5.542-4.885c1.624-1.826,2.909-3.839,3.852-6.04
		c0.941-2.201,1.305-4.569,1.086-7.104c-0.259-3.012-1.067-5.678-2.422-7.994c-1.355-2.315-3.086-4.227-5.191-5.731
		c-2.105-1.506-4.487-2.602-7.148-3.288c-2.66-0.687-5.428-0.93-8.301-0.73c-1.005,9.047-1.807,18.198-2.406,27.451
		c-0.165,2.569-0.307,5.122-0.425,7.661c-0.119,2.54-0.067,5.101,0.156,7.682C15.654,68.816,17.207,68.382,18.698,67.796z"/>
	<path fill="#FFFFFF" d="M57.504,51.411c-0.947-0.641-1.961-1.084-3.041-1.328c-0.292,1.086-0.616,2.222-0.971,3.407
		c-0.356,1.188-0.771,2.38-1.246,3.576c-0.476,1.198-1.002,2.353-1.581,3.461c-0.581,1.109-1.241,2.106-1.983,2.989
		c-0.219,0.261-0.486,0.523-0.799,0.792s-0.662,0.418-1.045,0.45c-0.622,0.054-0.959-0.23-1.013-0.852
		c-0.024-0.287,0.012-0.567,0.108-0.841c0.099-0.272,0.232-0.537,0.402-0.793c1.213-2.129,2.339-4.297,3.377-6.506
		c1.039-2.208,1.596-4.545,1.674-7.009c-0.745-0.804-1.304-1.706-1.679-2.71c-0.375-1.004-0.611-2.056-0.706-3.155
		c-0.049-0.574-0.03-1.323,0.06-2.246c0.089-0.923,0.276-1.83,0.56-2.722c0.285-0.891,0.663-1.67,1.136-2.337
		c0.471-0.666,1.066-1.032,1.785-1.094c0.526-0.045,0.952,0.147,1.278,0.577c0.326,0.431,0.609,0.935,0.853,1.516
		c0.242,0.582,0.415,1.181,0.516,1.798c0.101,0.618,0.169,1.118,0.202,1.5c0.099,1.148,0.125,2.302,0.081,3.462
		c0.648,0.812,1.473,1.452,2.478,1.919c1.004,0.468,2,0.984,2.988,1.549c0.988,0.565,1.856,1.286,2.607,2.161
		c0.749,0.875,1.193,2.101,1.328,3.68c0.07,0.813,0.03,1.756-0.118,2.828c-0.239,1.708-0.429,3.409-0.572,5.107
		c-0.143,1.7-0.14,3.408,0.008,5.13c0.042,0.479,0.149,1.036,0.325,1.671c0.174,0.636,0.596,0.925,1.267,0.867
		c0.813-0.07,1.723-0.557,2.729-1.464c1.006-0.904,1.987-1.952,2.945-3.145c0.957-1.19,1.843-2.386,2.654-3.589
		c0.813-1.2,1.404-2.155,1.777-2.862c0.21-0.354,0.452-0.75,0.729-1.184c0.276-0.432,0.629-0.667,1.06-0.705
		c0.431-0.037,0.719,0.094,0.865,0.396c0.146,0.301,0.235,0.644,0.269,1.024c0.025,0.287-0.013,0.556-0.111,0.804
		c-0.099,0.251-0.21,0.501-0.333,0.752c-0.496,0.958-1.247,2.18-2.25,3.662c-1.004,1.485-2.109,2.928-3.313,4.326
		c-1.206,1.401-2.473,2.616-3.805,3.651c-1.333,1.034-2.572,1.602-3.72,1.7c-1.195,0.104-2.16-0.181-2.892-0.848
		c-0.732-0.668-1.31-1.496-1.731-2.488c-0.423-0.992-0.719-2.058-0.89-3.199c-0.17-1.142-0.292-2.143-0.367-3.004
		c-0.115-1.338-0.169-2.659-0.16-3.961c0.007-1.301-0.045-2.621-0.161-3.961C58.976,52.97,58.451,52.052,57.504,51.411z"/>
	<path fill="#FFFFFF" d="M82.792,60.58c0.085,0.716,0.243,1.425,0.472,2.128c0.229,0.702,0.534,1.303,0.914,1.801
		c0.379,0.498,0.88,0.719,1.502,0.664c0.956-0.081,1.958-0.613,3.007-1.595c1.046-0.981,2.057-2.129,3.027-3.44
		c0.972-1.312,1.843-2.652,2.617-4.02s1.366-2.454,1.779-3.261c0.21-0.354,0.451-0.762,0.726-1.22
		c0.274-0.456,0.649-0.705,1.128-0.746c0.477-0.041,0.768,0.103,0.868,0.432c0.101,0.327,0.167,0.685,0.2,1.066
		c0.021,0.24-0.026,0.533-0.141,0.88c-0.115,0.346-0.264,0.709-0.448,1.086c-0.185,0.376-0.371,0.73-0.559,1.06
		c-0.188,0.33-0.346,0.596-0.474,0.8c-0.588,1.015-1.351,2.225-2.289,3.629c-0.939,1.407-1.992,2.762-3.155,4.066
		c-1.165,1.305-2.381,2.434-3.647,3.385c-1.268,0.951-2.546,1.483-3.837,1.595c-1.435,0.123-2.609-0.221-3.522-1.034
		c-0.913-0.813-1.664-1.831-2.25-3.058c-0.587-1.226-1.013-2.538-1.278-3.937c-0.265-1.398-0.442-2.624-0.533-3.677
		c-0.115-1.338-0.089-2.846,0.081-4.523c0.169-1.676,0.39-3.152,0.667-4.43c0.319-1.328,0.812-2.466,1.476-3.414
		c0.666-0.949,1.763-1.489,3.294-1.621c1.1-0.095,1.695,0.385,1.786,1.437c0.041,0.479,0.006,1.048-0.106,1.707
		c-0.112,0.66-0.257,1.349-0.437,2.062c-0.181,0.714-0.359,1.429-0.539,2.143c-0.181,0.714-0.318,1.341-0.416,1.878
		c-0.253,2.094-0.286,4.241-0.097,6.44C82.646,59.292,82.706,59.865,82.792,60.58z M85.093,32.74
		c0.501,0.511,0.783,1.125,0.845,1.842c0.083,0.958-0.177,1.858-0.779,2.705c-0.603,0.847-1.382,1.312-2.337,1.394
		c-0.767,0.066-1.387-0.158-1.865-0.67c-0.478-0.512-0.748-1.128-0.809-1.846c-0.079-0.908,0.171-1.796,0.746-2.666
		c0.576-0.869,1.34-1.344,2.298-1.427C83.957,32.007,84.591,32.23,85.093,32.74z"/>
	<path fill="#FFFFFF" d="M95.784,68.387c-0.271-0.339-0.425-0.747-0.467-1.226c-0.305-3.539-0.247-7.204,0.173-10.999
		c0.42-3.794,0.84-7.443,1.262-10.948c0.145-1.121,0.263-2.264,0.355-3.428c0.091-1.164,0.21-2.305,0.355-3.427
		c0.116-0.877,0.564-1.71,1.339-2.5c0.774-0.789,1.617-1.223,2.525-1.301c0.813-0.07,1.393,0.097,1.742,0.501
		c0.348,0.403,0.555,0.989,0.621,1.753c0.107,1.244,0.015,2.563-0.273,3.961c-0.29,1.398-0.6,2.689-0.932,3.874
		c-0.412,1.385-0.7,2.782-0.867,4.194c-0.167,1.413-0.289,2.819-0.359,4.223c0.458-0.811,1.142-1.978,2.047-3.501
		c0.905-1.523,1.894-3.028,2.971-4.52c1.076-1.489,2.179-2.813,3.308-3.97c1.128-1.156,2.148-1.774,3.056-1.853
		c0.717-0.062,1.314,0.152,1.79,0.641c0.476,0.49,0.854,1.107,1.135,1.854c0.281,0.748,0.478,1.501,0.592,2.261
		c0.113,0.762,0.193,1.406,0.239,1.931c0.144,1.676,0.24,3.352,0.289,5.034c0.048,1.683,0.145,3.359,0.289,5.032
		c0.037,0.432,0.088,0.896,0.156,1.397c0.066,0.499,0.19,0.959,0.371,1.377c0.181,0.417,0.438,0.758,0.774,1.018
		c0.336,0.26,0.791,0.365,1.364,0.315c0.956-0.082,1.894-0.536,2.81-1.362c0.916-0.825,1.786-1.79,2.605-2.897
		c0.819-1.106,1.542-2.239,2.164-3.402c0.623-1.161,1.091-2.141,1.409-2.939c0.161-0.351,0.369-0.754,0.619-1.209
		c0.25-0.456,0.59-0.702,1.02-0.738c0.382-0.033,0.695,0.097,0.937,0.389c0.242,0.293,0.377,0.605,0.406,0.941
		c0.017,0.19-0.023,0.435-0.118,0.732c-0.096,0.297-0.183,0.546-0.261,0.744c-0.433,1.146-1.077,2.467-1.935,3.961
		c-0.859,1.496-1.87,2.92-3.029,4.271c-1.161,1.354-2.41,2.52-3.746,3.502c-1.336,0.982-2.674,1.532-4.014,1.646
		c-1.244,0.107-2.241-0.132-2.989-0.718c-0.749-0.586-1.344-1.341-1.785-2.267c-0.441-0.925-0.745-1.935-0.911-3.03
		c-0.167-1.093-0.289-2.095-0.367-3.003c-0.12-1.388-0.19-2.754-0.209-4.103c-0.02-1.346-0.088-2.712-0.208-4.1
		c-0.016-0.191-0.077-0.475-0.182-0.853c-0.104-0.375-0.3-0.553-0.588-0.527c-0.239,0.021-0.515,0.188-0.823,0.505
		c-0.31,0.314-0.553,0.578-0.728,0.785c-1.098,1.25-2.106,2.687-3.025,4.308c-0.92,1.622-1.751,3.161-2.493,4.622
		c-0.909,1.765-1.717,3.557-2.428,5.377c-0.71,1.82-1.395,3.674-2.051,5.56c-0.238,0.599-0.587,1.158-1.047,1.68
		c-0.461,0.521-1.026,0.812-1.696,0.87C96.451,68.872,96.054,68.724,95.784,68.387z"/>
	<path fill="#FFFFFF" d="M134.13,56.739c-0.006,1.351,0.004,2.722,0.029,4.117c-0.002,1.108-0.004,2.191-0.009,3.252
		c-0.006,1.06,0.04,2.14,0.134,3.241c0.029,0.333,0.047,0.693,0.057,1.078c0.008,0.385-0.033,0.751-0.122,1.095
		c-0.091,0.345-0.258,0.648-0.5,0.911c-0.244,0.26-0.579,0.41-1.01,0.447c-0.623,0.054-1.083-0.112-1.379-0.495
		c-0.299-0.384-0.517-0.835-0.658-1.353c-0.27-0.893-0.489-1.897-0.657-3.016c-0.168-1.117-0.327-2.247-0.473-3.392
		c-0.146-1.143-0.269-2.289-0.368-3.437s-0.189-2.199-0.272-3.156c-0.379-4.4-0.565-8.792-0.556-13.177
		c0.008-4.385,0.159-8.782,0.454-13.191c0.246-3.298,0.528-6.597,0.846-9.901c0.318-3.304,0.818-6.575,1.504-9.813
		c0.307-1.471,0.868-2.795,1.682-3.974c0.813-1.179,2.057-1.839,3.731-1.984c1.195-0.103,1.848,0.491,1.959,1.782
		c0.045,0.527,0.019,1.06-0.079,1.597c-0.098,0.54-0.221,1.081-0.366,1.623c-0.514,1.875-0.917,3.752-1.213,5.632
		c-0.297,1.88-0.581,3.747-0.855,5.602c-0.604,4.196-1.099,8.37-1.488,12.521c-0.39,4.153-0.642,8.355-0.758,12.604
		c1.915-2.38,3.886-4.67,5.913-6.868c2.028-2.198,4.05-4.443,6.069-6.738c0.309-0.315,0.672-0.708,1.091-1.178
		c0.417-0.469,0.864-0.724,1.343-0.765c0.382-0.033,0.743,0.117,1.087,0.448c0.341,0.333,0.528,0.689,0.562,1.072
		c0.046,0.526-0.14,1.037-0.555,1.529c-0.416,0.495-0.8,0.925-1.153,1.292c-2.316,2.223-4.538,4.509-6.672,6.861
		c-2.136,2.352-4.255,4.727-6.361,7.123c0.988,0.3,1.945,0.652,2.873,1.054c0.926,0.402,1.866,0.827,2.82,1.275
		c1.552,0.687,3.092,1.385,4.624,2.095c1.531,0.711,3.031,1.486,4.501,2.323c0.558,0.338,1.101,0.761,1.626,1.269
		c0.524,0.51,0.817,1.099,0.875,1.768c0.037,0.431-0.108,0.721-0.431,0.869c-0.325,0.149-0.655,0.236-0.989,0.265
		c-0.382,0.033-0.76-0.007-1.131-0.119c-0.37-0.112-0.756-0.249-1.155-0.406c-1.695-0.673-3.382-1.382-5.062-2.131
		c-1.678-0.746-3.366-1.454-5.061-2.129c-0.703-0.324-1.403-0.627-2.101-0.903c-0.699-0.275-1.417-0.503-2.154-0.682
		C134.197,54.036,134.134,55.39,134.13,56.739z"/>
	<path fill="#FFFFFF" d="M183.454,16.071c0.452-0.617,0.941-1.225,1.469-1.824c0.526-0.599,1.019-1.184,1.476-1.753
		c0.457-0.569,0.661-1.14,0.611-1.715c-0.033-0.382-0.201-0.656-0.505-0.824c-0.304-0.165-0.65-0.269-1.038-0.307
		c-0.391-0.039-0.776-0.054-1.159-0.045c-0.386,0.01-0.698,0.024-0.937,0.044c-0.814,0.07-1.625,0.165-2.434,0.282
		c-0.809,0.118-1.613,0.284-2.413,0.497c-1.131,0.291-2.369,0.771-3.705,1.439c-1.342,0.669-2.597,1.488-3.766,2.456
		c-1.17,0.967-2.123,2.05-2.863,3.245c-0.74,1.197-1.052,2.465-0.938,3.802c0.128,1.483,0.74,2.876,1.841,4.178
		c1.099,1.304,2.452,2.584,4.053,3.842c1.601,1.261,3.335,2.508,5.2,3.745c1.864,1.237,3.604,2.556,5.218,3.958
		c1.614,1.404,2.983,2.887,4.106,4.453c1.12,1.566,1.764,3.281,1.924,5.146c0.157,1.818-0.148,3.458-0.913,4.921
		c-0.766,1.463-1.825,2.733-3.177,3.813c-1.352,1.081-2.91,2.01-4.674,2.787c-1.763,0.779-3.587,1.43-5.467,1.953
		c-1.884,0.522-3.704,0.932-5.459,1.229c-1.76,0.296-3.331,0.503-4.718,0.623c-1.242,0.106-2.517,0.144-3.819,0.111
		c-0.291-0.022-0.738-0.033-1.34-0.029s-1.206-0.03-1.813-0.097c-0.61-0.067-1.151-0.215-1.628-0.438
		c-0.478-0.225-0.737-0.575-0.778-1.053c-0.07-0.814,0.104-1.298,0.523-1.455c0.422-0.157,0.966-0.264,1.635-0.321
		c1.194-0.103,2.382-0.048,3.556,0.163c1.174,0.214,2.358,0.268,3.556,0.164c0.859-0.074,1.955-0.216,3.287-0.427
		c1.328-0.21,2.727-0.513,4.186-0.902s2.937-0.855,4.433-1.394c1.494-0.538,2.813-1.183,3.953-1.931
		c1.139-0.749,2.055-1.597,2.744-2.549c0.688-0.95,0.981-2.023,0.878-3.219c-0.114-1.339-0.766-2.608-1.953-3.807
		c-1.188-1.199-2.628-2.399-4.32-3.603c-1.693-1.202-3.546-2.428-5.557-3.677c-2.012-1.248-3.873-2.604-5.589-4.071
		c-1.717-1.466-3.191-3.073-4.426-4.823c-1.235-1.748-1.945-3.699-2.131-5.851c-0.159-1.865,0.129-3.54,0.869-5.025
		c0.738-1.485,1.771-2.79,3.096-3.916c1.323-1.126,2.854-2.09,4.593-2.889c1.737-0.801,3.523-1.46,5.358-1.979
		c1.834-0.52,3.652-0.929,5.459-1.229c1.804-0.3,3.399-0.51,4.788-0.629c0.668-0.058,1.448-0.077,2.343-0.057
		c0.893,0.02,1.758,0.138,2.596,0.354c0.838,0.217,1.555,0.578,2.153,1.079c0.598,0.502,0.935,1.209,1.014,2.117
		c0.078,0.909-0.039,1.798-0.349,2.668c-0.312,0.871-0.773,1.645-1.39,2.323c-0.307,0.364-0.718,0.761-1.235,1.19
		c-0.518,0.431-1.061,0.839-1.629,1.224c-0.569,0.386-1.156,0.714-1.758,0.982c-0.605,0.269-1.146,0.424-1.623,0.465
		c-0.525,0.045-0.982-0.083-1.37-0.388c-0.386-0.303-0.603-0.72-0.647-1.245C182.802,17.284,183.002,16.688,183.454,16.071z"/>
	<path fill="#FFFFFF" d="M228.485,44.715c-0.357,0.609-0.64,1.115-0.845,1.518c-0.593,0.967-1.313,2.091-2.168,3.366
		c-0.855,1.279-1.797,2.493-2.83,3.642c-1.033,1.149-2.153,2.135-3.358,2.961c-1.206,0.828-2.431,1.294-3.674,1.4
		c-1.195,0.104-2.188-0.233-2.976-1.008c-0.792-0.773-1.427-1.731-1.91-2.87s-0.829-2.337-1.033-3.597
		c-0.206-1.258-0.32-2.321-0.347-3.187c-0.416,0.759-0.949,1.708-1.598,2.847c-0.649,1.141-1.383,2.252-2.206,3.335
		c-0.822,1.083-1.691,2.023-2.611,2.826c-0.918,0.801-1.854,1.244-2.813,1.326c-0.858,0.074-1.602-0.128-2.22-0.604
		c-0.618-0.477-1.117-1.085-1.493-1.823c-0.377-0.736-0.662-1.533-0.854-2.384c-0.194-0.85-0.32-1.609-0.379-2.279
		c-0.16-1.866,0.112-4.031,0.814-6.502c0.702-2.469,1.715-4.833,3.038-7.091c1.325-2.257,2.892-4.188,4.707-5.789
		c1.812-1.601,3.771-2.493,5.875-2.674c0.526-0.045,1.072,0.15,1.641,0.583c0.566,0.433,0.872,0.912,0.918,1.438
		c0.021,0.24-0.034,0.425-0.168,0.556c-0.134,0.132-0.292,0.255-0.475,0.367c-1.226,0.876-2.388,1.783-3.488,2.72
		c-1.1,0.938-2.129,2.003-3.085,3.192c-1.701,2.075-2.999,4.342-3.896,6.804c-0.896,2.461-1.228,5.055-0.992,7.781
		c0.024,0.288,0.104,0.642,0.236,1.064c0.132,0.422,0.413,0.614,0.846,0.577c0.524-0.045,1.095-0.419,1.708-1.123
		c0.615-0.702,1.239-1.575,1.873-2.617c0.632-1.041,1.24-2.204,1.831-3.482c0.588-1.278,1.144-2.52,1.668-3.72
		c0.521-1.202,0.967-2.313,1.338-3.332c0.369-1.019,0.653-1.778,0.853-2.277c0.192-0.547,0.45-1.062,0.769-1.548
		c0.32-0.484,0.813-0.756,1.484-0.814c0.383-0.033,0.759,0.007,1.13,0.12c0.371,0.113,0.578,0.409,0.619,0.887
		c0.045,0.526-0.063,1.234-0.324,2.124s-0.466,1.606-0.61,2.147c-0.276,1.278-0.436,2.629-0.481,4.053
		c-0.047,1.427-0.017,2.761,0.09,4.003c0.033,0.384,0.096,0.956,0.186,1.719c0.088,0.763,0.239,1.532,0.452,2.309
		c0.21,0.778,0.498,1.451,0.861,2.023c0.362,0.571,0.83,0.831,1.403,0.781c0.861-0.074,1.786-0.538,2.77-1.395
		c0.987-0.854,1.939-1.841,2.855-2.955c0.916-1.115,1.756-2.259,2.521-3.434c0.767-1.174,1.338-2.113,1.71-2.82
		c0.204-0.403,0.436-0.821,0.686-1.253c0.254-0.429,0.641-0.668,1.168-0.714c0.766-0.065,1.188,0.356,1.266,1.264
		C229.003,43.586,228.842,44.106,228.485,44.715z"/>
	<path fill="#FFFFFF" d="M241.513,40.342c0.68,1.195,1.246,2.47,1.704,3.828c0.452,1.358,0.812,2.725,1.074,4.099
		c0.264,1.376,0.444,2.636,0.543,3.784c0.152,1.768,0.148,3.828-0.011,6.18c-0.158,2.349-0.603,4.604-1.333,6.763
		c-0.729,2.158-1.784,4.02-3.168,5.584c-1.383,1.563-3.223,2.444-5.519,2.643c-1.005,0.087-1.884-0.188-2.638-0.82
		c-0.752-0.633-1.403-1.493-1.954-2.577c-0.553-1.085-1.007-2.299-1.362-3.642c-0.356-1.343-0.651-2.665-0.883-3.971
		c-0.234-1.307-0.413-2.543-0.538-3.712c-0.126-1.17-0.215-2.09-0.272-2.759c-0.864-10.042-0.806-19.864,0.174-29.463
		c0.98-9.599,2.861-19.216,5.646-28.851c0.194-0.546,0.388-1.092,0.582-1.64c0.194-0.546,0.463-1.051,0.81-1.514
		c0.264-0.312,0.606-0.641,1.034-0.993c0.428-0.35,0.895-0.666,1.399-0.952c0.505-0.285,1.017-0.521,1.529-0.71
		c0.512-0.188,0.986-0.302,1.416-0.338c0.668-0.058,1.154,0.117,1.453,0.526c0.3,0.407,0.475,0.897,0.525,1.472
		c0.041,0.479,0.019,0.926-0.065,1.342c-0.086,0.418-0.207,0.826-0.366,1.225c-0.5,1.441-1.04,2.872-1.617,4.294
		c-0.575,1.423-1.115,2.856-1.617,4.294c-1.608,4.812-2.973,9.688-4.088,14.625c-1.117,4.938-1.867,9.953-2.245,15.044
		c0.394,0.11,0.906,0.188,1.537,0.228c0.629,0.044,1.281,0.059,1.954,0.048c0.674-0.009,1.335-0.03,1.981-0.062
		c0.648-0.03,1.188-0.066,1.616-0.103c0.621-0.054,1.22-0.128,1.789-0.227c0.569-0.096,1.138-0.218,1.704-0.363
		c0.373-0.128,0.737-0.244,1.09-0.347c0.351-0.103,0.717-0.17,1.101-0.204c0.288-0.024,0.566,0,0.837,0.073
		c0.272,0.074,0.423,0.301,0.456,0.683c0.079,0.91-0.115,1.6-0.58,2.073s-1.05,0.813-1.755,1.018
		c-0.705,0.206-1.465,0.332-2.281,0.378c-0.815,0.046-1.532,0.096-2.154,0.149C240.001,38.182,240.831,39.147,241.513,40.342z
		 M230.614,49.735c-0.096,3.381,0.004,6.767,0.297,10.164c0.045,0.524,0.141,1.372,0.29,2.54c0.148,1.166,0.384,2.362,0.707,3.588
		c0.322,1.226,0.726,2.287,1.214,3.185c0.487,0.897,1.063,1.317,1.734,1.26c0.86-0.074,1.593-0.524,2.196-1.346
		c0.604-0.822,1.099-1.782,1.488-2.874c0.387-1.093,0.688-2.203,0.905-3.329c0.217-1.128,0.346-2.007,0.389-2.637
		c0.108-0.973,0.158-1.928,0.148-2.867c-0.006-0.938-0.052-1.887-0.134-2.842l-0.019-0.216c-0.124-1.436-0.384-2.904-0.778-4.413
		c-0.394-1.507-0.938-2.93-1.632-4.269c-0.693-1.337-1.556-2.54-2.586-3.607c-1.034-1.066-2.273-1.899-3.721-2.498
		C230.874,42.968,230.709,46.355,230.614,49.735z"/>
	<path fill="#FFFFFF" d="M256.015,52.643c-1.053-0.463-1.939-1.109-2.66-1.939c-0.723-0.829-1.276-1.815-1.665-2.964
		c-0.387-1.146-0.637-2.366-0.748-3.657c-0.14-1.625,0.002-3.614,0.426-5.963c0.423-2.349,1.118-4.637,2.083-6.864
		c0.966-2.226,2.184-4.149,3.659-5.771c1.474-1.62,3.167-2.513,5.08-2.678c1.292-0.111,2.32,0.211,3.083,0.967
		c0.762,0.755,1.2,1.756,1.307,3.002c0.104,1.2-0.153,2.563-0.77,4.088c-0.615,1.527-1.426,3.022-2.431,4.485
		c-1.008,1.465-2.11,2.778-3.311,3.944c-1.199,1.167-2.335,1.988-3.401,2.466c-0.144,1.124-0.176,2.142-0.098,3.053
		c0.141,1.63,0.609,2.883,1.407,3.756c0.797,0.872,2.032,1.236,3.707,1.092c1.53-0.131,2.938-0.553,4.228-1.267
		c1.285-0.713,2.465-1.585,3.53-2.616c1.067-1.031,2.029-2.186,2.883-3.464c0.854-1.276,1.588-2.545,2.202-3.803
		c0.204-0.403,0.456-0.834,0.755-1.293c0.297-0.46,0.709-0.712,1.236-0.757c0.236-0.02,0.472,0.032,0.701,0.156
		c0.227,0.126,0.351,0.307,0.371,0.547c0.041,0.478,0.025,0.865-0.047,1.16c-0.071,0.295-0.208,0.645-0.415,1.047
		c-0.769,1.705-1.747,3.356-2.935,4.95c-1.188,1.596-2.521,3.018-4.004,4.268c-1.481,1.252-3.104,2.282-4.864,3.094
		c-1.762,0.811-3.623,1.303-5.584,1.471C258.31,53.277,257.065,53.105,256.015,52.643z M260.097,27.874
		c-0.629,1.097-1.197,2.358-1.699,3.782c-0.505,1.425-0.911,2.841-1.224,4.25c-0.313,1.408-0.49,2.427-0.533,3.062
		c0.725-0.547,1.507-1.257,2.348-2.129c0.839-0.871,1.602-1.833,2.28-2.886c0.682-1.052,1.24-2.117,1.676-3.197
		c0.437-1.079,0.615-2.101,0.532-3.062c-0.033-0.384-0.149-0.751-0.348-1.097c-0.2-0.347-0.538-0.499-1.016-0.458
		C261.397,26.2,260.725,26.778,260.097,27.874z"/>
	<g>
		<path fill="#FFFFFF" d="M278.101,60.868c0,0-17.123-0.322-42.827,0.01c-12.851,0.165-27.842,0.486-43.898,1.071
			c-8.027,0.308-16.32,0.66-24.743,1.107c-8.424,0.449-16.978,0.948-25.524,1.576c-8.549,0.594-17.087,1.315-25.485,2.102
			c-4.202,0.368-8.358,0.848-12.471,1.259c-4.11,0.438-8.162,0.944-12.153,1.401c-3.981,0.524-7.898,1.041-11.73,1.547
			c-3.822,0.577-7.563,1.139-11.203,1.688c-3.628,0.624-7.165,1.19-10.573,1.812c-3.399,0.663-6.693,1.263-9.839,1.913
			c-3.139,0.691-6.146,1.354-9.005,1.984c-2.842,0.714-5.536,1.391-8.068,2.025c-5.022,1.422-9.412,2.645-12.942,3.913
			c-1.769,0.619-3.379,1.09-4.726,1.644c-1.354,0.538-2.505,0.996-3.438,1.367c-1.869,0.742-2.865,1.138-2.865,1.138
			s0.991-0.406,2.851-1.17c0.93-0.381,2.077-0.853,3.424-1.404c1.342-0.569,2.947-1.059,4.711-1.697
			c3.52-1.309,7.896-2.58,12.91-4.06c2.529-0.663,5.218-1.37,8.054-2.115c2.856-0.662,5.86-1.358,8.995-2.084
			c3.143-0.687,6.433-1.321,9.831-2.022c3.405-0.66,6.939-1.266,10.566-1.93c3.639-0.59,7.377-1.195,11.199-1.814
			c3.831-0.547,7.746-1.105,11.727-1.676c3.99-0.503,8.042-1.052,12.152-1.537c4.113-0.456,8.27-0.98,12.472-1.395
			c8.399-0.88,16.94-1.695,25.492-2.385c8.549-0.723,17.107-1.314,25.535-1.857c8.428-0.539,16.727-0.983,24.76-1.378
			c16.068-0.763,31.074-1.249,43.94-1.554c25.73-0.614,42.906-0.479,42.906-0.479L278.101,60.868z"/>
	</g>
</g>
</svg>
